<svg width="62" height="62" viewBox="0 0 62 62" fill="none" xmlns="http://www.w3.org/2000/svg">
<path d="M22.7109 40.218L28.1507 34.4824L34.3385 40.218H44.9461L28.0827 23.6255L11.3553 40.218H22.7109Z" fill="white"/>
<path d="M38.2827 13.5881L30.259 21.7819L35.5628 27.2445L38.2827 24.5132L53.1742 39.3987C49.7743 48.4802 41.0706 54.967 30.8029 54.967C17.6114 54.967 6.93576 44.2467 6.93576 31C7.00376 17.7533 17.6794 7.03304 30.8709 7.03304C42.5665 7.03304 52.3582 15.5683 54.3301 26.6982L61.5379 34.3458C61.6739 33.2533 61.7419 32.0925 61.7419 31C61.7419 22.7379 58.546 14.9537 52.6982 9.0815C46.8504 3.20925 39.0987 0 30.8709 0C22.5752 0 14.8915 3.20925 9.04369 9.0815C3.19589 14.9537 0 22.6696 0 31C0 39.3304 3.19589 47.0463 9.04369 52.9185C14.8915 58.7908 22.6432 62 30.8709 62C39.0987 62 46.8504 58.7908 52.6982 52.9185C56.3021 49.2996 58.886 44.9978 60.3139 40.2863C60.5859 39.467 60.7899 38.5793 60.9939 37.7599L54.7381 31.1366L38.2827 13.5881Z" fill="white"/>
</svg>
