<svg xmlns="http://www.w3.org/2000/svg" xmlns:xlink="http://www.w3.org/1999/xlink"><symbol id="icon-arrow" viewBox="0 0 14 9"><g fill="none">
<path id="Arrow/left" d="M0.646446 4.85355C0.451184 4.65829 0.451184 4.34171 0.646446 4.14645L3.82843 0.964466C4.02369 0.769204 4.34027 0.769204 4.53553 0.964466C4.7308 1.15973 4.7308 1.47631 4.53553 1.67157L1.70711 4.5L4.53553 7.32843C4.7308 7.52369 4.7308 7.84027 4.53553 8.03553C4.34027 8.2308 4.02369 8.2308 3.82843 8.03553L0.646446 4.85355ZM14 5H1V4H14V5Z" fill="white"/>
</g></symbol><symbol id="icon-close" viewBox="0 0 20 20"><g fill="none"><path d="M.293 18.291a1 1 0 101.414 1.414L10 11.413l8.292 8.292a1 1 0 101.414-1.414l-8.292-8.292 8.292-8.292A1 1 0 1018.291.293L9.999 8.585 1.707.293A1 1 0 10.293 1.707L8.585 10 .293 18.291z"/></g></symbol><symbol id="icon-ok" viewBox="0 0 9 16"><g fill="none">
<path d="M4.5 2.42035C5.41587 2.42035 6.1607 3.18736 6.1607 4.1305C6.1607 5.0708 5.41587 5.83781 4.5 5.83781C3.58413 5.83781 2.8393 5.0708 2.8393 4.1305C2.8393 3.18736 3.58413 2.42035 4.5 2.42035ZM4.5 8.25816C6.71243 8.25816 8.51106 6.40597 8.51106 4.1305C8.51106 1.85219 6.71243 0 4.5 0C2.28757 0 0.491701 1.85219 0.491701 4.1305C0.491701 6.40597 2.28757 8.25816 4.5 8.25816ZM6.12208 11.6273C6.93863 11.4342 7.72485 11.1018 8.45037 10.6331C8.99934 10.278 9.16486 9.53083 8.82003 8.96551C8.47244 8.39735 7.74967 8.22691 7.19795 8.58485C5.55656 9.6473 3.44344 9.6473 1.79929 8.58485C1.25033 8.22691 0.524805 8.39735 0.179975 8.96551C-0.164855 9.53083 0.000663014 10.278 0.549632 10.6331C1.27515 11.1018 2.06136 11.4342 2.87792 11.6273L0.63515 13.934C0.177216 14.4056 0.177216 15.1726 0.63515 15.6442C0.866875 15.88 1.16481 15.9993 1.4655 15.9993C1.76619 15.9993 2.06688 15.88 2.29861 15.6442L4.5 13.3772L6.70415 15.6442C7.16208 16.1186 7.90416 16.1186 8.36485 15.6442C8.82278 15.1726 8.82278 14.4056 8.36485 13.934L6.12208 11.6273Z" fill="currentColor"/>
</g></symbol><symbol id="icon-reddit" viewBox="0 0 14 15"><g fill="none">
<path d="M8.36171 0C7.91277 0 7.49149 0.244007 7.22128 0.59589C6.95106 0.947774 6.80213 1.37671 6.69362 1.82877C6.52128 2.55565 6.46808 3.36216 6.45532 4.08904C5.19361 4.17894 4.05105 4.57962 3.10211 5.19863C2.717 4.85188 2.25317 4.65925 1.80849 4.66438C1.3021 4.66952 0.821252 4.90325 0.463803 5.38356C-0.219178 6.30051 -0.140455 7.80051 0.651038 8.69178C0.602102 8.96661 0.565931 9.24914 0.565931 9.53425C0.565931 12.5548 3.44679 15 7 15C10.5532 15 13.4341 12.5522 13.4341 9.53425C13.4341 9.24914 13.3979 8.96661 13.349 8.69178C14.1405 7.80051 14.2192 6.30051 13.5362 5.38356C13.1788 4.90325 12.6979 4.66952 12.1915 4.66438C11.7468 4.65925 11.283 4.85188 10.8979 5.19863C9.9532 4.58219 8.81703 4.18151 7.5617 4.08904C7.57873 3.41866 7.62341 2.7226 7.74894 2.19863C7.82766 1.86986 7.92128 1.63099 8.02128 1.5C8.12128 1.36901 8.19362 1.31507 8.36171 1.31507C8.72554 1.31507 8.77235 1.44092 8.9915 1.74658C9.10214 1.90068 9.2298 2.09332 9.43405 2.28082C9.63831 2.46832 9.94044 2.63014 10.2681 2.63014V1.31507C10.1766 1.31507 10.1596 1.3125 10.0979 1.25342C10.0362 1.19435 9.95108 1.05822 9.82554 0.883562C9.57448 0.531678 9.08724 0 8.36171 0ZM11.9021 0.123288C11.0553 0.123288 10.3702 0.950343 10.3702 1.9726C10.3702 2.99486 11.0553 3.82192 11.9021 3.82192C12.749 3.82192 13.4341 2.99486 13.4341 1.9726C13.4341 0.950343 12.749 0.123288 11.9021 0.123288ZM11.9021 0.780822C12.4468 0.780822 12.8894 1.31507 12.8894 1.9726C12.8894 2.63014 12.4468 3.16438 11.9021 3.16438C11.3575 3.16438 10.9149 2.63014 10.9149 1.9726C10.9149 1.31507 11.3575 0.780822 11.9021 0.780822ZM7 5.11644C10.0149 5.11644 12.566 7.14298 12.566 9.53425C12.566 11.9281 10.0149 13.9521 7 13.9521C3.98509 13.9521 1.43402 11.9281 1.43402 9.53425C1.43402 7.14298 3.98509 5.11644 7 5.11644ZM1.82551 5.71233C1.97658 5.7149 2.13402 5.75599 2.28509 5.83562C1.73828 6.33647 1.30423 6.91182 1.00849 7.56164C0.80423 7.05308 0.85955 6.41866 1.11061 6.08219C1.29359 5.83562 1.54679 5.70976 1.82551 5.71233ZM12.1745 5.71233C12.4532 5.70976 12.7064 5.83562 12.8894 6.08219C13.1405 6.41866 13.1958 7.05308 12.9915 7.56164C12.6958 6.91182 12.2617 6.33647 11.7149 5.83562C11.866 5.75599 12.0234 5.7149 12.1745 5.71233ZM4.82127 7.35616C4.27658 7.35616 3.83403 7.89041 3.83403 8.54795C3.83403 9.20548 4.27658 9.73973 4.82127 9.73973C5.36595 9.73973 5.80851 9.20548 5.80851 8.54795C5.80851 7.89041 5.36595 7.35616 4.82127 7.35616ZM9.17873 7.35616C8.63405 7.35616 8.19149 7.89041 8.19149 8.54795C8.19149 9.20548 8.63405 9.73973 9.17873 9.73973C9.72342 9.73973 10.166 9.20548 10.166 8.54795C10.166 7.89041 9.72342 7.35616 9.17873 7.35616ZM4.29361 11.4041C4.64042 12.2697 5.71276 13.1096 7 13.1096C8.28724 13.1096 9.37661 12.2697 9.72342 11.4041C9.09363 11.8947 8.10001 12.226 7 12.226C5.9 12.226 4.9234 11.8947 4.29361 11.4041Z" fill="currentColor"/>
</g></symbol><symbol id="icon-vk" viewBox="0 0 16 9"><g fill="none">
<path d="M15.8574 8.02743C15.8144 7.95645 15.5484 7.38659 14.2683 6.21531C12.9282 4.98883 13.1082 5.18799 14.7223 3.06728C15.7054 1.77572 16.0984 0.986988 15.9754 0.649804C15.8584 0.328395 15.1353 0.413184 15.1353 0.413184L12.7312 0.426986C12.7312 0.426986 12.5531 0.403324 12.4201 0.481212C12.2911 0.558114 12.2081 0.735579 12.2081 0.735579C12.2081 0.735579 11.8271 1.7353 11.3191 2.58516C10.248 4.37855 9.81894 4.4732 9.64393 4.36179C9.2369 4.10249 9.33891 3.31869 9.33891 2.76263C9.33891 1.02445 9.60593 0.299803 8.81787 0.112478C8.55585 0.0503654 8.36384 0.00895679 7.69479 0.00205536C6.83672 -0.00681791 6.10967 0.00501311 5.69864 0.203183C5.42462 0.335296 5.21361 0.630086 5.34262 0.646846C5.50163 0.667551 5.86165 0.74248 6.05267 0.998819C6.29969 1.3291 6.29069 2.07248 6.29069 2.07248C6.29069 2.07248 6.4327 4.11827 5.95966 4.37263C5.63464 4.54714 5.1896 4.19122 4.23453 2.56347C3.7455 1.73037 3.37547 0.808537 3.37547 0.808537C3.37547 0.808537 3.30447 0.636987 3.17746 0.545297C3.02345 0.433888 2.80743 0.398395 2.80743 0.398395L0.521262 0.412198C0.521262 0.412198 0.178236 0.422057 0.0522271 0.568959C-0.0597811 0.700086 0.0432264 0.970227 0.0432264 0.970227C0.0432264 0.970227 1.83336 5.09827 3.85951 7.17954C5.71864 9.0873 7.8288 8.96208 7.8288 8.96208H8.78487C8.78487 8.96208 9.07389 8.93054 9.2209 8.77377C9.35691 8.62983 9.35191 8.35969 9.35191 8.35969C9.35191 8.35969 9.33291 7.09475 9.92895 6.90842C10.516 6.72504 11.2701 8.13095 12.0691 8.67222C12.6732 9.08138 13.1322 8.99166 13.1322 8.99166L15.2693 8.96208C15.2693 8.96208 16.3874 8.89406 15.8574 8.02743Z" fill="currentColor"/>
</g></symbol></svg>