<svg width="19" height="19" viewBox="0 0 19 19" fill="none" xmlns="http://www.w3.org/2000/svg">
<g clip-path="url(#clip0_259_699)">
<path d="M18.3689 16.933V5.09294C18.3779 4.89874 18.2278 4.73402 18.0337 4.725C17.9923 4.72306 17.9509 4.72848 17.9114 4.74097V4.75857L16.3275 5.25484C16.4933 4.81092 16.5918 4.34466 16.6197 3.87162C16.6197 1.73338 14.8863 0 12.748 0C10.6098 0 8.87642 1.73338 8.87642 3.87162C8.90115 4.32253 8.99244 4.76732 9.14744 5.19149L6.52882 4.25526C6.49842 4.25152 6.46771 4.25152 6.43731 4.25526H6.40915C6.36696 4.25601 6.32521 4.26437 6.28596 4.2799L0.85514 6.39169C0.729885 6.43933 0.642554 6.55394 0.629883 6.68734V12.3469V18.5415C0.630455 18.7359 0.788487 18.893 0.982904 18.8924C1.02589 18.8923 1.06848 18.8843 1.10856 18.8688L6.41619 16.8134L12.47 18.9815C12.5431 19.0062 12.6222 19.0062 12.6952 18.9815L18.1225 17.285C18.275 17.2372 18.3762 17.0927 18.3689 16.933ZM12.748 0.70393C14.4975 0.70393 15.9157 2.12213 15.9157 3.87162C15.9157 5.2478 13.8497 9.04902 12.748 10.9109C11.6464 9.03494 9.58035 5.2302 9.58035 3.87162C9.58035 2.12213 10.9986 0.70393 12.748 0.70393ZM17.6756 16.6902L12.9381 18.172V15.4865C12.9381 15.2921 12.7805 15.1345 12.5861 15.1345C12.3918 15.1345 12.2342 15.2921 12.2342 15.4865V18.1473L6.76463 16.1904V13.9378C6.76463 13.7434 6.60704 13.5859 6.41267 13.5859C6.2183 13.5859 6.0607 13.7434 6.0607 13.9378V16.1904L1.33381 18.0312V12.5898L3.07252 11.8859C3.25858 11.8295 3.36373 11.6331 3.30741 11.447C3.2511 11.2609 3.05461 11.1558 2.86856 11.2121C2.84911 11.218 2.83019 11.2256 2.81202 11.2347L1.33377 11.8295V6.93019L6.06066 5.09997V6.15587C6.06066 6.35024 6.21825 6.50783 6.41262 6.50783C6.607 6.50783 6.76459 6.35024 6.76459 6.15587V5.0859L9.46416 6.0538C10.3299 8.03224 11.3258 9.95115 12.4453 11.7979C12.5461 11.9641 12.7626 12.0171 12.9288 11.9163C12.9772 11.8869 13.0178 11.8463 13.0472 11.7979C14.1612 9.96198 15.1535 8.0549 16.0178 6.089L17.6649 5.57161L17.6755 11.3403L15.891 11.7732C15.6967 11.7966 15.558 11.9731 15.5813 12.1674C15.6046 12.3618 15.7811 12.5005 15.9755 12.4772C16.0036 12.4806 16.0319 12.4806 16.06 12.4772L17.6755 12.083V16.6902H17.6756Z" fill="#2D383F"/>
<path d="M12.7344 1.82666C11.605 1.82666 10.6895 2.74221 10.6895 3.87158C10.6895 5.00095 11.605 5.91649 12.7344 5.91649C13.8629 5.91456 14.7774 5.00015 14.7793 3.87158C14.7793 2.74221 13.8637 1.82666 12.7344 1.82666ZM12.7344 5.21256C12.0001 5.20297 11.4093 4.60595 11.4075 3.87158H11.3934C11.3934 3.13095 11.9937 2.53059 12.7344 2.53059C13.475 2.53059 14.0754 3.13095 14.0754 3.87158C14.0754 4.6122 13.475 5.21256 12.7344 5.21256Z" fill="#2D383F"/>
<path d="M8.13022 10.6155V10.626L6.42671 9.8904C6.34 9.85424 6.24241 9.85424 6.1557 9.8904L4.71616 10.4711C4.53538 10.544 4.44792 10.7497 4.52082 10.9305C4.59372 11.1112 4.79936 11.1987 4.98014 11.1258L6.28241 10.6014L7.84865 11.2631C7.89313 11.282 7.94108 11.2916 7.98944 11.2912C8.18381 11.2928 8.34268 11.1365 8.34426 10.9421C8.3454 10.8 8.26098 10.6712 8.13022 10.6155Z" fill="#2D383F"/>
<path d="M13.8847 12.6284C13.8323 12.4588 13.6618 12.3549 13.4871 12.3858L13.4906 12.3577L12.6177 12.5689L11.1395 11.9283C10.9606 11.8506 10.7526 11.9325 10.6749 12.1113C10.5971 12.2902 10.6791 12.4982 10.8579 12.5759L12.4417 13.2798C12.4862 13.2988 12.5342 13.3084 12.5825 13.308H12.667L13.6525 13.0687C13.8382 13.0112 13.9422 12.8141 13.8847 12.6284Z" fill="#2D383F"/>
</g>
<defs>
<clipPath id="clip0_259_699">
<rect width="19" height="19" fill="white"/>
</clipPath>
</defs>
</svg>
