<svg width="19" height="23" viewBox="0 0 19 23" fill="none" xmlns="http://www.w3.org/2000/svg">
<g id="pine-tree" clip-path="url(#clip0_259_734)">
<g id="Group">
<g id="Group_2">
<path id="Vector" d="M18.6897 16.3361L14.9605 11.5365H16.7623C16.9726 11.5359 17.1428 11.3436 17.1423 11.1069C17.1421 11.0127 17.1143 10.9212 17.0632 10.8465L14.0691 6.4197H15.5928C15.8032 6.41938 15.9735 6.22729 15.9733 5.99063C15.9732 5.88671 15.9395 5.78638 15.8785 5.70833L12.214 1.0201C12.0749 0.842573 11.8341 0.825592 11.6763 0.98217C11.6644 0.994008 11.6532 1.0067 11.6426 1.0201L7.97433 5.70404C7.83339 5.87974 7.84572 6.15074 8.00185 6.3093C8.07261 6.38114 8.1647 6.42051 8.26003 6.4197H9.80277L8.88093 7.77389L6.41254 4.61555C6.27341 4.43803 6.03266 4.42105 5.87486 4.57762C5.86291 4.58946 5.85168 4.60216 5.84115 4.61555L2.70614 8.6224C2.56729 8.80019 2.58287 9.07098 2.7409 9.22718C2.81028 9.29575 2.89946 9.33362 2.99184 9.33378H4.19937L1.69288 13.0235C1.56875 13.2146 1.60575 13.4827 1.77559 13.6224C1.83901 13.6746 1.91525 13.7034 1.99381 13.7049H3.40323L0.306316 17.7117C0.169564 17.8916 0.188277 18.1621 0.34817 18.316C0.416165 18.3814 0.50254 18.4179 0.59201 18.4188H4.80504V21.4186C4.80504 21.8777 5.13592 22.25 5.54403 22.25H6.70585C7.11397 22.2523 7.44656 21.8821 7.44866 21.4229C7.44866 21.4215 7.44866 21.4201 7.44866 21.4186V18.4188H10.6103V21.4186C10.6103 21.8777 10.9412 22.25 11.3493 22.25H12.5111C12.9193 22.25 13.2501 21.8777 13.2501 21.4186V17.0475H18.4041C18.6144 17.0472 18.7847 16.8551 18.7845 16.6184C18.7844 16.5145 18.7507 16.4142 18.6897 16.3361ZM6.68681 21.3929L5.56689 21.4186L5.54403 18.4188H6.68681V21.3929ZM10.6103 17.5618H1.43004L4.54601 13.5635C4.68705 13.3879 4.67481 13.1169 4.51872 12.9582C4.44597 12.8843 4.35069 12.8448 4.2527 12.8478H2.76709L5.27357 9.15808C5.4019 8.97054 5.37081 8.70147 5.2041 8.5571C5.13773 8.49963 5.0564 8.46834 4.97264 8.46813H3.82987L6.11542 5.5412L8.40097 8.45956L6.79346 10.8508C6.66514 11.0384 6.69623 11.3074 6.86294 11.4518C6.92931 11.5093 7.01064 11.5405 7.0944 11.5408H8.89998L5.17073 16.3404C5.03188 16.5182 5.04745 16.789 5.20548 16.9452C5.27486 17.0138 5.36404 17.0516 5.45642 17.0518H10.6103V17.5618ZM12.4883 21.3843L11.3722 21.4186L11.3493 17.0475H12.4921L12.4883 21.3843ZM12.5111 16.1904H6.29445L10.0237 11.3908C10.1626 11.213 10.147 10.9422 9.98895 10.786C9.91957 10.7174 9.83039 10.6796 9.73801 10.6794H7.86767L10.877 6.24829C11.0032 6.05898 10.9691 5.79034 10.8008 5.64833C10.7359 5.59359 10.6572 5.56353 10.576 5.56262H9.11711L11.9436 1.95431L14.7548 5.56262H13.2844C13.0741 5.56321 12.9039 5.75552 12.9044 5.99218C12.9046 6.08641 12.9324 6.1779 12.9835 6.25257L15.9738 10.6794H14.1186C13.9083 10.6797 13.738 10.8718 13.7382 11.1085C13.7383 11.2124 13.772 11.3127 13.833 11.3908L17.5622 16.1904H12.5111Z" fill="#2D383F"/>
</g>
</g>
</g>
<defs>
<clipPath id="clip0_259_734">
<rect width="19" height="21.375" fill="white" transform="translate(0 0.875)"/>
</clipPath>
</defs>
</svg>
