<svg width="19" height="19" viewBox="0 0 19 19" fill="none" xmlns="http://www.w3.org/2000/svg">
<g id="boots">
<g id="Group">
<g id="Group_2">
<path id="Vector" d="M18.7295 12.3625C19.3198 10.5139 18.8341 8.41565 18.318 6.96173C18.3146 6.90548 18.2972 6.85096 18.2674 6.80318C18.0919 6.33091 17.93 5.94298 17.7917 5.66299C18.0463 5.56162 18.2143 5.31629 18.2168 5.04229V2.23229C18.2168 1.85966 17.9147 1.55762 17.5421 1.55762H9.25375C9.06745 1.55728 8.91616 1.70803 8.91582 1.89436C8.91582 1.90132 8.91603 1.90828 8.91641 1.91519C9.03111 3.93921 8.88268 5.31216 8.45426 6.28031C8.44574 6.28993 8.43786 6.30009 8.43065 6.31067C8.42938 6.3275 8.42938 6.34445 8.43065 6.36127C8.26712 6.71371 8.04596 7.03633 7.77622 7.31593L7.74586 7.33617C7.74586 7.33617 7.74586 7.33617 7.74586 7.35979C7.35037 7.73697 6.89425 8.04487 6.39651 8.27059C5.52931 8.65537 4.63933 8.98659 3.73156 9.26236L3.55952 9.31971C0.405435 10.3654 -0.00611421 12.2613 0.000632504 13.2126C-0.000210835 13.2261 -0.000210835 13.2395 0.000632504 13.253V15.6616C0.00113851 15.7788 0.0624071 15.8874 0.162554 15.9483C0.935558 16.4187 1.76996 16.7797 2.64197 17.0211C2.82131 17.0715 3.0076 16.967 3.05803 16.7876C3.06752 16.7539 3.07169 16.7188 3.07039 16.6837V16.6062H3.56627V16.9435C3.56412 17.1106 3.68467 17.2541 3.84963 17.2808C4.14311 17.3281 4.43659 17.3652 4.72333 17.3888C4.81728 17.3967 4.91026 17.3649 4.9797 17.3011C5.04911 17.2367 5.08828 17.1461 5.08765 17.0514V16.6264H5.58354V17.1054C5.58354 17.2917 5.73458 17.4427 5.92087 17.4427C6.20423 17.4427 6.48759 17.4427 6.7912 17.4023C6.96691 17.3882 7.10209 17.2412 7.10154 17.0649V16.6264H7.59743V16.9232C7.59503 17.1095 7.74409 17.2625 7.93038 17.2649C7.9499 17.2652 7.96943 17.2637 7.98874 17.2606C8.60796 17.1657 9.21833 17.0202 9.81372 16.8254L9.8677 16.8018C12.229 15.4525 13.7268 16.5623 13.7875 16.6095C13.8464 16.6552 13.9188 16.6801 13.9933 16.6804H14.4116C14.5979 16.6804 14.7489 16.5293 14.7489 16.343V15.7729H15.2313V16.3363C15.2313 16.5226 15.3824 16.6736 15.5687 16.6736H16.6549C16.8412 16.6736 16.9922 16.5226 16.9922 16.3363V15.7729H17.4915V16.3363C17.4915 16.5226 17.6425 16.6736 17.8288 16.6736H18.662C18.8483 16.6736 18.9994 16.5226 18.9994 16.3363V12.6998C19.0027 12.537 18.8891 12.395 18.7295 12.3625ZM10.7245 2.23904H11.0011H17.5252V5.03217H10.7245V2.23904ZM6.48422 8.96551L6.48759 8.98574C6.76413 9.21024 7.01932 9.45983 7.24997 9.73126C7.18879 9.833 7.15725 9.94985 7.15889 10.0686C7.15657 10.4244 7.44318 10.7148 7.79899 10.7171C8.15483 10.7194 8.44515 10.4328 8.44747 10.077C8.44967 9.74176 8.19443 9.46088 7.86055 9.43103C7.64719 9.14012 7.40409 8.87215 7.13528 8.63154C7.43673 8.45997 7.72035 8.25883 7.98199 8.03109C8.30916 8.33802 8.61357 8.66835 8.8928 9.01948C8.77545 9.35542 8.95263 9.72287 9.28853 9.84026C9.62448 9.95761 9.99192 9.78042 10.1093 9.44452C10.2267 9.10858 10.0495 8.74113 9.71358 8.62374C9.64387 8.59937 9.5705 8.58718 9.49663 8.58769H9.41567C9.11978 8.21519 8.79737 7.86457 8.45089 7.53858C8.61167 7.3406 8.75394 7.12833 8.87593 6.90438C9.39817 7.17624 9.90291 7.48043 10.3872 7.81519C10.3839 8.17475 10.6727 8.4689 11.0322 8.47224C11.3918 8.47557 11.6859 8.18677 11.6893 7.82721C11.6926 7.46765 11.4038 7.17349 11.0442 7.17016C10.9416 7.16919 10.8401 7.19255 10.7481 7.23835C10.2384 6.89325 9.70776 6.58008 9.15929 6.30055C9.52699 5.32228 9.68554 4.02354 9.61132 2.25253H10.0532V5.04567C10.0532 5.4183 10.3553 5.72034 10.7279 5.72034H17.0496C17.1373 5.89913 17.2857 6.20947 17.4476 6.61428H17.3093C15.26 6.62908 13.6107 8.30235 13.6255 10.3517C13.6339 11.5162 14.1885 12.6092 15.1234 13.3036C12.3943 14.0222 8.28897 14.8756 4.83465 14.653C5.47221 12.1061 4.70984 10.5375 4.21395 9.84932C4.98616 9.59603 5.74402 9.30099 6.48422 8.96551ZM3.53591 10.0416C3.90023 10.47 4.85152 11.9104 4.15323 14.5585C2.93773 14.463 1.75718 14.1063 0.69217 13.5128C0.680068 13.4357 0.672183 13.358 0.668557 13.28V13.2564C0.64157 12.5379 0.911439 10.9828 3.53591 10.0416ZM18.1662 15.9989V15.4356C18.1662 15.2493 18.0151 15.0983 17.8288 15.0983H16.6583C16.472 15.0983 16.3209 15.2493 16.3209 15.4356V15.9989H15.906V15.4356C15.906 15.2493 15.755 15.0983 15.5687 15.0983H14.4049C14.2186 15.0983 14.0675 15.2493 14.0675 15.4356V15.9855C13.6087 15.6987 11.9322 14.8655 9.55397 16.1946C9.13087 16.3343 8.69934 16.4469 8.26198 16.5319V16.2992C8.26198 16.1129 8.11094 15.9618 7.92464 15.9618H6.76084C6.57454 15.9618 6.4235 16.1129 6.4235 16.2992V16.7613H6.25146V16.2891C6.25146 16.1028 6.10042 15.9517 5.91412 15.9517H4.74357C4.55728 15.9517 4.40623 16.1028 4.40623 16.2891V16.6905L4.23419 16.6669V16.2891C4.23419 16.1028 4.08315 15.9517 3.89686 15.9517H2.7263C2.55473 15.9505 2.40955 16.0782 2.38897 16.2486C1.79024 16.0514 1.21369 15.7925 0.668557 15.4761V14.2684C2.13934 15.0477 4.04191 15.3411 6.06593 15.3411C11.4431 15.3411 17.5961 13.2834 18.3213 13.0371L18.3247 15.9989H18.1662ZM18.0009 12.4401C17.7141 12.5345 17.0091 12.7774 16.0342 13.0371C14.5249 12.3067 13.8935 10.491 14.624 8.98174C15.1237 7.94932 16.1625 7.28663 17.3093 7.26871C17.4423 7.26685 17.5753 7.2736 17.7074 7.28895L17.7107 7.29907C18.2066 8.72937 18.6519 10.7702 18.0009 12.4401Z" fill="#2D383F"/>
</g>
</g>
<g id="Group_3">
<g id="Group_4">
<path id="Vector_2" d="M12.0236 2.64697C11.4815 2.64697 11.042 3.08648 11.042 3.62862C11.0438 4.17 11.4823 4.60841 12.0236 4.61027C12.5658 4.61027 13.0053 4.17076 13.0053 3.62862C13.0053 3.08648 12.5658 2.64697 12.0236 2.64697ZM12.0236 3.93559C11.8541 3.93559 11.7167 3.79817 11.7167 3.62862C11.7167 3.45907 11.8541 3.32164 12.0236 3.32164C12.1932 3.32164 12.3306 3.45907 12.3306 3.62862C12.3306 3.79817 12.1932 3.93559 12.0236 3.93559Z" fill="#2D383F"/>
</g>
</g>
</g>
</svg>
