<svg width="118" height="34" viewBox="0 0 118 34" fill="none" xmlns="http://www.w3.org/2000/svg">
<g id="logotype" clip-path="url(#clip0_248_2661)">
<g id="logotype_2">
<path d="M13.0726 22.0551L16.2038 18.9097L19.7656 22.0551H25.8714L16.1647 12.9559L6.53621 22.0551H13.0726Z" fill="#2D383F"/>
<path d="M22.0359 7.45154L17.4174 11.9449L20.4703 14.9405L22.0359 13.4427L30.6076 21.6057C28.6506 26.5859 23.6406 30.1432 17.7305 30.1432C10.1373 30.1432 3.99229 24.2643 3.99229 17C4.03143 9.73568 10.1764 3.85683 17.7696 3.85683C24.5017 3.85683 30.1379 8.53744 31.273 14.641L35.4218 18.8348C35.5001 18.2357 35.5392 17.5991 35.5392 17C35.5392 12.4692 33.6996 8.20044 30.3336 4.98018C26.9675 1.75991 22.5056 0 17.7696 0C12.9945 0 8.57169 1.75991 5.20564 4.98018C1.83959 8.20044 0 12.4317 0 17C0 21.5683 1.83959 25.7996 5.20564 29.0198C8.57169 32.2401 13.0337 34 17.7696 34C22.5056 34 26.9675 32.2401 30.3336 29.0198C32.408 27.0352 33.8953 24.6762 34.7173 22.0925C34.8738 21.6432 34.9913 21.1564 35.1087 20.707L31.5078 17.0749L22.0359 7.45154Z" fill="#2D383F"/>
<path d="M50.2011 10.9241H52.8142L51.3889 17.7799H55.7968L55.3745 19.7622H48.3535L50.2011 10.9241Z" fill="#2D383F"/>
<path d="M58.2562 10.9241H60.8693L59.0216 19.7622H56.4085L58.2562 10.9241Z" fill="#2D383F"/>
<path d="M64.9323 12.8559L64.5232 14.8002H68.6012L68.1921 16.732H64.1273L63.4938 19.7622H60.8807L62.7283 10.9241H69.9605L69.5514 12.8559H64.9323Z" fill="#2D383F"/>
<path d="M73.3602 12.8559L73.0567 14.3457H77.1611L76.7784 16.2143H72.6608L72.3308 17.8304H77.1743L76.752 19.7622H69.3482L71.1958 10.9241H78.428L78.0189 12.8559H73.3602Z" fill="#2D383F"/>
<path d="M81.607 12.9064H78.7695L79.1918 10.9241H87.4666L87.0443 12.9064H84.2201L82.7815 19.7622H80.1684L81.607 12.9064Z" fill="#2D383F"/>
<path d="M91.4522 19.9389C90.5196 19.9389 89.7058 19.7748 89.0107 19.4465C88.3245 19.1183 87.7922 18.6595 87.4138 18.0703C87.0443 17.4811 86.8595 16.8077 86.8595 16.0502C86.8595 15.0401 87.1015 14.1311 87.5854 13.323C88.0781 12.515 88.76 11.8837 89.631 11.4291C90.5108 10.9746 91.5094 10.7473 92.6268 10.7473C93.5594 10.7473 94.3689 10.9115 95.0552 11.2397C95.7502 11.568 96.2825 12.0268 96.652 12.616C97.0304 13.2052 97.2195 13.8785 97.2195 14.6361C97.2195 15.6462 96.9732 16.5552 96.4805 17.3633C95.9966 18.1713 95.3147 18.8026 94.4349 19.2572C93.5638 19.7117 92.5696 19.9389 91.4522 19.9389ZM91.6766 17.8683C92.2573 17.8683 92.7676 17.7294 93.2075 17.4517C93.6474 17.1739 93.9862 16.8035 94.2237 16.3406C94.4613 15.8692 94.58 15.3516 94.58 14.7876C94.58 14.19 94.3865 13.7144 93.9994 13.3609C93.621 12.9989 93.0887 12.818 92.4025 12.818C91.8218 12.818 91.3115 12.9569 90.8716 13.2346C90.4317 13.5124 90.0929 13.887 89.8554 14.3583C89.6178 14.8213 89.499 15.3347 89.499 15.8987C89.499 16.4963 89.6882 16.9761 90.0665 17.338C90.4537 17.6915 90.9903 17.8683 91.6766 17.8683Z" fill="#2D383F"/>
<path d="M102.125 19.9389C101.324 19.9389 100.634 19.8127 100.053 19.5602C99.4724 19.2992 99.0281 18.9289 98.7201 18.4491C98.4122 17.9693 98.2582 17.4054 98.2582 16.7572C98.2582 16.4879 98.2934 16.1764 98.3638 15.8229L99.3932 10.9241H102.006L100.99 15.785C100.937 16.0376 100.911 16.269 100.911 16.4795C100.911 17.4054 101.421 17.8683 102.442 17.8683C102.996 17.8683 103.432 17.7084 103.748 17.3885C104.074 17.0603 104.316 16.5258 104.474 15.785L105.49 10.9241H108.064L107.021 15.9366C106.458 18.6048 104.826 19.9389 102.125 19.9389Z" fill="#2D383F"/>
<path d="M117.515 13.7397C117.515 14.5477 117.291 15.2463 116.842 15.8355C116.393 16.4163 115.764 16.8414 114.955 17.1108L116.525 19.7622H113.793L112.421 17.4138H111.101L110.613 19.7622H108L109.847 10.9241H113.793C114.972 10.9241 115.887 11.1724 116.538 11.669C117.189 12.1656 117.515 12.8559 117.515 13.7397ZM114.876 13.9796C114.876 13.6176 114.748 13.3483 114.493 13.1715C114.238 12.9863 113.881 12.8937 113.424 12.8937H112.051L111.497 15.482H113.054C113.635 15.482 114.084 15.3516 114.4 15.0906C114.717 14.8297 114.876 14.4593 114.876 13.9796Z" fill="#2D383F"/>
<path d="M50.0932 28.0956C49.775 28.0956 49.4858 28.0282 49.2256 27.8935C48.9686 27.7559 48.7666 27.5686 48.6197 27.3314C48.4759 27.0943 48.404 26.8278 48.404 26.5321C48.404 26.2364 48.4759 25.97 48.6197 25.7329C48.7666 25.4957 48.9686 25.3098 49.2256 25.1751C49.4858 25.0375 49.775 24.9687 50.0932 24.9687C50.4115 24.9687 50.6976 25.0361 50.9516 25.1707C51.2087 25.3054 51.4107 25.4928 51.5576 25.7329C51.7045 25.97 51.7779 26.2364 51.7779 26.5321C51.7779 26.8278 51.7045 27.0957 51.5576 27.3358C51.4107 27.573 51.2087 27.7589 50.9516 27.8935C50.6976 28.0282 50.4115 28.0956 50.0932 28.0956ZM50.0932 27.8057C50.3472 27.8057 50.5767 27.7515 50.7818 27.6432C50.9868 27.532 51.1475 27.3797 51.2638 27.1865C51.3801 26.9903 51.4382 26.7722 51.4382 26.5321C51.4382 26.2921 51.3801 26.0754 51.2638 25.8822C51.1475 25.686 50.9868 25.5338 50.7818 25.4255C50.5767 25.3142 50.3472 25.2586 50.0932 25.2586C49.8392 25.2586 49.6082 25.3142 49.4001 25.4255C49.195 25.5338 49.0328 25.686 48.9135 25.8822C48.7972 26.0754 48.7391 26.2921 48.7391 26.5321C48.7391 26.7722 48.7972 26.9903 48.9135 27.1865C49.0328 27.3797 49.195 27.532 49.4001 27.6432C49.6082 27.7515 49.8392 27.8057 50.0932 27.8057Z" fill="#2D383F"/>
<path d="M53.7545 25.7417C53.9809 25.7417 54.186 25.7914 54.3696 25.891C54.5532 25.9876 54.697 26.1252 54.8011 26.3038C54.9051 26.4824 54.9572 26.6859 54.9572 26.9142C54.9572 27.1455 54.9051 27.3504 54.8011 27.529C54.697 27.7076 54.5532 27.8467 54.3696 27.9462C54.189 28.0429 53.984 28.0912 53.7545 28.0912C53.5586 28.0912 53.3811 28.0531 53.222 27.977C53.0659 27.8979 52.9374 27.7837 52.8364 27.6344V28.9212H52.5105V25.7592H52.8226V26.216C52.9205 26.0637 53.0491 25.9466 53.2082 25.8646C53.3704 25.7826 53.5525 25.7417 53.7545 25.7417ZM53.7315 27.8145C53.8998 27.8145 54.0528 27.7779 54.1906 27.7047C54.3283 27.6286 54.4354 27.5217 54.5119 27.3841C54.5915 27.2465 54.6312 27.0899 54.6312 26.9142C54.6312 26.7385 54.5915 26.5834 54.5119 26.4487C54.4354 26.3111 54.3283 26.2042 54.1906 26.1281C54.0528 26.052 53.8998 26.0139 53.7315 26.0139C53.5601 26.0139 53.4056 26.052 53.2679 26.1281C53.1332 26.2042 53.0261 26.3111 52.9466 26.4487C52.8701 26.5834 52.8318 26.7385 52.8318 26.9142C52.8318 27.0899 52.8701 27.2465 52.9466 27.3841C53.0261 27.5217 53.1332 27.6286 53.2679 27.7047C53.4056 27.7779 53.5601 27.8145 53.7315 27.8145Z" fill="#2D383F"/>
<path d="M57.365 26.0359H55.9833V28.0692H55.6574V25.7592H57.365V26.0359Z" fill="#2D383F"/>
<path d="M58.6669 25.7417C58.9821 25.7417 59.2239 25.8178 59.3922 25.97C59.5605 26.1193 59.6447 26.3418 59.6447 26.6375V28.0692H59.3325V27.7091C59.2591 27.8291 59.1505 27.9228 59.0066 27.9902C58.8658 28.0575 58.6975 28.0912 58.5017 28.0912C58.2324 28.0912 58.0182 28.0297 57.859 27.9067C57.6999 27.7837 57.6203 27.6213 57.6203 27.4192C57.6203 27.2231 57.6938 27.065 57.8407 26.945C57.9906 26.8249 58.2278 26.7649 58.5522 26.7649H59.3188V26.6244C59.3188 26.4253 59.2606 26.2745 59.1443 26.172C59.028 26.0666 58.8582 26.0139 58.6348 26.0139C58.4818 26.0139 58.3349 26.0388 58.1941 26.0886C58.0533 26.1354 57.9325 26.2013 57.8315 26.2862L57.6846 26.0535C57.807 25.9539 57.9539 25.8778 58.1253 25.8251C58.2966 25.7695 58.4772 25.7417 58.6669 25.7417ZM58.5522 27.8452C58.7358 27.8452 58.8934 27.8057 59.025 27.7267C59.1566 27.6447 59.2545 27.5276 59.3188 27.3753V26.9977H58.5614C58.1482 26.9977 57.9416 27.1353 57.9416 27.4105C57.9416 27.5451 57.9952 27.652 58.1023 27.731C58.2094 27.8072 58.3594 27.8452 58.5522 27.8452Z" fill="#2D383F"/>
<path d="M60.5123 25.7592H60.8382V26.7825H62.3577V25.7592H62.6836V28.0692H62.3577V27.0504H60.8382V28.0692H60.5123V25.7592Z" fill="#2D383F"/>
<path d="M63.6099 25.7592H63.9359V27.5949L65.5471 25.7592H65.8363V28.0692H65.5104V26.2335L63.9037 28.0692H63.6099V25.7592Z" fill="#2D383F"/>
<path d="M67.8962 26.8659C68.0675 26.904 68.1991 26.9698 68.2909 27.0635C68.3858 27.1572 68.4332 27.2714 68.4332 27.4061C68.4332 27.5407 68.3843 27.6608 68.2864 27.7662C68.1915 27.8716 68.0614 27.9536 67.8962 28.0121C67.7309 28.0677 67.5488 28.0956 67.3499 28.0956C67.1755 28.0956 67.0041 28.0721 66.8358 28.0253C66.6675 27.9755 66.5206 27.9038 66.3951 27.8101L66.5053 27.5773C66.6154 27.6564 66.744 27.7179 66.8909 27.7618C67.0378 27.8057 67.1862 27.8277 67.3361 27.8277C67.5595 27.8277 67.7416 27.7881 67.8824 27.7091C68.0262 27.6271 68.0981 27.5173 68.0981 27.3797C68.0981 27.2568 68.04 27.1616 67.9237 27.0943C67.8074 27.024 67.6483 26.9889 67.4463 26.9889H67.0332V26.7605H67.4279C67.6085 26.7605 67.7539 26.7283 67.864 26.6639C67.9742 26.5966 68.0293 26.5073 68.0293 26.396C68.0293 26.273 67.9666 26.1764 67.8411 26.1062C67.7187 26.0359 67.558 26.0008 67.3591 26.0008C67.099 26.0008 66.8419 26.0637 66.5879 26.1896L66.4961 25.9481C66.7838 25.8046 67.0821 25.7329 67.3912 25.7329C67.5748 25.7329 67.7401 25.7592 67.887 25.8119C68.0369 25.8617 68.1532 25.9334 68.2359 26.0271C68.3215 26.1208 68.3644 26.2291 68.3644 26.3521C68.3644 26.4692 68.3215 26.5731 68.2359 26.6639C68.1532 26.7547 68.04 26.822 67.8962 26.8659Z" fill="#2D383F"/>
<path d="M70.004 25.7417C70.3192 25.7417 70.561 25.8178 70.7293 25.97C70.8976 26.1193 70.9818 26.3418 70.9818 26.6375V28.0692H70.6696V27.7091C70.5962 27.8291 70.4875 27.9228 70.3437 27.9902C70.2029 28.0575 70.0346 28.0912 69.8387 28.0912C69.5694 28.0912 69.3552 28.0297 69.1961 27.9067C69.0369 27.7837 68.9574 27.6213 68.9574 27.4192C68.9574 27.2231 69.0308 27.065 69.1777 26.945C69.3277 26.8249 69.5648 26.7649 69.8892 26.7649H70.6558V26.6244C70.6558 26.4253 70.5977 26.2745 70.4814 26.172C70.3651 26.0666 70.1953 26.0139 69.9719 26.0139C69.8188 26.0139 69.672 26.0388 69.5312 26.0886C69.3904 26.1354 69.2695 26.2013 69.1685 26.2862L69.0216 26.0535C69.1441 25.9539 69.2909 25.8778 69.4623 25.8251C69.6337 25.7695 69.8143 25.7417 70.004 25.7417ZM69.8892 27.8452C70.0728 27.8452 70.2305 27.8057 70.362 27.7267C70.4936 27.6447 70.5916 27.5276 70.6558 27.3753V26.9977H69.8984C69.4853 26.9977 69.2787 27.1353 69.2787 27.4105C69.2787 27.5451 69.3323 27.652 69.4394 27.731C69.5465 27.8072 69.6964 27.8452 69.8892 27.8452Z" fill="#2D383F"/>
<path d="M74.3649 27.7969V28.6489H74.0574V28.0692H71.8494V25.7592H72.1753V27.7969H73.6488V25.7592H73.9747V27.7969H74.3649Z" fill="#2D383F"/>
<path d="M74.9874 25.7592H75.3133V27.5949L76.9245 25.7592H77.2137V28.0692H76.8878V26.2335L75.2811 28.0692H74.9874V25.7592Z" fill="#2D383F"/>
<path d="M80.0023 25.7592V28.0692H79.7039V27.3051H78.8547L78.2946 28.0692H77.9412L78.5425 27.2611C78.3558 27.2114 78.212 27.1265 78.111 27.0064C78.01 26.8864 77.9595 26.7342 77.9595 26.5497C77.9595 26.2921 78.0513 26.0959 78.235 25.9612C78.4186 25.8266 78.6695 25.7592 78.9878 25.7592H80.0023ZM78.29 26.5585C78.29 26.901 78.518 27.0723 78.974 27.0723H79.7039V26.0359H78.997C78.5257 26.0359 78.29 26.2101 78.29 26.5585Z" fill="#2D383F"/>
<path d="M84.2996 25.7592V28.0692H83.9737V26.0359H82.4589V28.0692H82.133V25.7592H84.2996Z" fill="#2D383F"/>
<path d="M86.2222 28.0912C85.9897 28.0912 85.78 28.0414 85.5933 27.9418C85.4067 27.8394 85.2598 27.6988 85.1527 27.5203C85.0456 27.3417 84.992 27.1396 84.992 26.9142C84.992 26.6888 85.0456 26.4868 85.1527 26.3082C85.2598 26.1296 85.4067 25.9905 85.5933 25.891C85.78 25.7914 85.9897 25.7417 86.2222 25.7417C86.4548 25.7417 86.6644 25.7914 86.8511 25.891C87.0378 25.9905 87.1832 26.1296 87.2872 26.3082C87.3943 26.4868 87.4479 26.6888 87.4479 26.9142C87.4479 27.1396 87.3943 27.3417 87.2872 27.5203C87.1832 27.6988 87.0378 27.8394 86.8511 27.9418C86.6644 28.0414 86.4548 28.0912 86.2222 28.0912ZM86.2222 27.8145C86.3936 27.8145 86.5466 27.7779 86.6813 27.7047C86.819 27.6286 86.9261 27.5217 87.0026 27.3841C87.0791 27.2465 87.1174 27.0899 87.1174 26.9142C87.1174 26.7385 87.0791 26.5819 87.0026 26.4443C86.9261 26.3067 86.819 26.2013 86.6813 26.1281C86.5466 26.052 86.3936 26.0139 86.2222 26.0139C86.0509 26.0139 85.8963 26.052 85.7586 26.1281C85.6239 26.2013 85.5168 26.3067 85.4373 26.4443C85.3608 26.5819 85.3225 26.7385 85.3225 26.9142C85.3225 27.0899 85.3608 27.2465 85.4373 27.3841C85.5168 27.5217 85.6239 27.6286 85.7586 27.7047C85.8963 27.7779 86.0509 27.8145 86.2222 27.8145Z" fill="#2D383F"/>
<path d="M89.5695 28.0692L88.8029 27.1031L88.0317 28.0692H87.6645L88.6193 26.8835L87.7104 25.7592H88.0776L88.8029 26.6639L89.5282 25.7592H89.8862L88.9773 26.8835L89.9413 28.0692H89.5695Z" fill="#2D383F"/>
<path d="M91.3865 28.0912C91.1539 28.0912 90.9442 28.0414 90.7576 27.9418C90.5709 27.8394 90.424 27.6988 90.3169 27.5203C90.2098 27.3417 90.1562 27.1396 90.1562 26.9142C90.1562 26.6888 90.2098 26.4868 90.3169 26.3082C90.424 26.1296 90.5709 25.9905 90.7576 25.891C90.9442 25.7914 91.1539 25.7417 91.3865 25.7417C91.619 25.7417 91.8287 25.7914 92.0153 25.891C92.202 25.9905 92.3474 26.1296 92.4514 26.3082C92.5585 26.4868 92.6121 26.6888 92.6121 26.9142C92.6121 27.1396 92.5585 27.3417 92.4514 27.5203C92.3474 27.6988 92.202 27.8394 92.0153 27.9418C91.8287 28.0414 91.619 28.0912 91.3865 28.0912ZM91.3865 27.8145C91.5578 27.8145 91.7108 27.7779 91.8455 27.7047C91.9832 27.6286 92.0903 27.5217 92.1668 27.3841C92.2433 27.2465 92.2816 27.0899 92.2816 26.9142C92.2816 26.7385 92.2433 26.5819 92.1668 26.4443C92.0903 26.3067 91.9832 26.2013 91.8455 26.1281C91.7108 26.052 91.5578 26.0139 91.3865 26.0139C91.2151 26.0139 91.0605 26.052 90.9228 26.1281C90.7882 26.2013 90.6811 26.3067 90.6015 26.4443C90.525 26.5819 90.4867 26.7385 90.4867 26.9142C90.4867 27.0899 90.525 27.2465 90.6015 27.3841C90.6811 27.5217 90.7882 27.6286 90.9228 27.7047C91.0605 27.7779 91.2151 27.8145 91.3865 27.8145Z" fill="#2D383F"/>
<path d="M95.6501 27.7969V28.6269H95.3425V28.0692H93.1804V28.6269H92.8729V27.7969H93.0106C93.1728 27.7881 93.283 27.674 93.3411 27.4544C93.3992 27.2348 93.439 26.9274 93.4604 26.5321L93.4926 25.7592H95.2737V27.7969H95.6501ZM93.7588 26.5497C93.7435 26.8776 93.7145 27.1484 93.6716 27.3622C93.6288 27.573 93.5523 27.7179 93.4421 27.7969H94.9477V26.0359H93.7864L93.7588 26.5497Z" fill="#2D383F"/>
<path d="M97.2814 28.0912C97.0488 28.0912 96.8391 28.0414 96.6525 27.9418C96.4658 27.8394 96.3189 27.6988 96.2118 27.5203C96.1047 27.3417 96.0511 27.1396 96.0511 26.9142C96.0511 26.6888 96.1047 26.4868 96.2118 26.3082C96.3189 26.1296 96.4658 25.9905 96.6525 25.891C96.8391 25.7914 97.0488 25.7417 97.2814 25.7417C97.5139 25.7417 97.7236 25.7914 97.9102 25.891C98.0969 25.9905 98.2423 26.1296 98.3463 26.3082C98.4534 26.4868 98.507 26.6888 98.507 26.9142C98.507 27.1396 98.4534 27.3417 98.3463 27.5203C98.2423 27.6988 98.0969 27.8394 97.9102 27.9418C97.7236 28.0414 97.5139 28.0912 97.2814 28.0912ZM97.2814 27.8145C97.4527 27.8145 97.6058 27.7779 97.7404 27.7047C97.8781 27.6286 97.9852 27.5217 98.0617 27.3841C98.1382 27.2465 98.1765 27.0899 98.1765 26.9142C98.1765 26.7385 98.1382 26.5819 98.0617 26.4443C97.9852 26.3067 97.8781 26.2013 97.7404 26.1281C97.6058 26.052 97.4527 26.0139 97.2814 26.0139C97.11 26.0139 96.9554 26.052 96.8177 26.1281C96.6831 26.2013 96.576 26.3067 96.4964 26.4443C96.4199 26.5819 96.3816 26.7385 96.3816 26.9142C96.3816 27.0899 96.4199 27.2465 96.4964 27.3841C96.576 27.5217 96.6831 27.6286 96.8177 27.7047C96.9554 27.7779 97.11 27.8145 97.2814 27.8145Z" fill="#2D383F"/>
<path d="M100.741 26.8747C101.069 26.9479 101.233 27.1367 101.233 27.4412C101.233 27.6432 101.154 27.7984 100.998 27.9067C100.842 28.015 100.61 28.0692 100.301 28.0692H99.2036V25.7592H100.269C100.544 25.7592 100.76 25.8105 100.916 25.9129C101.072 26.0154 101.15 26.1618 101.15 26.3521C101.15 26.478 101.113 26.5863 101.04 26.6771C100.969 26.7649 100.87 26.8308 100.741 26.8747ZM99.5203 26.7869H100.246C100.432 26.7869 100.575 26.7532 100.672 26.6859C100.773 26.6185 100.824 26.5204 100.824 26.3916C100.824 26.2628 100.773 26.1662 100.672 26.1018C100.575 26.0374 100.432 26.0052 100.246 26.0052H99.5203V26.7869ZM100.287 27.8233C100.495 27.8233 100.651 27.7911 100.755 27.7267C100.859 27.6622 100.911 27.5612 100.911 27.4236C100.911 27.286 100.864 27.185 100.769 27.1206C100.674 27.0533 100.524 27.0196 100.319 27.0196H99.5203V27.8233H100.287Z" fill="#2D383F"/>
<path d="M104.736 26.8747C105.063 26.9479 105.227 27.1367 105.227 27.4412C105.227 27.6432 105.149 27.7984 104.993 27.9067C104.837 28.015 104.604 28.0692 104.295 28.0692H103.198V25.7592H104.263C104.538 25.7592 104.754 25.8105 104.91 25.9129C105.066 26.0154 105.144 26.1618 105.144 26.3521C105.144 26.478 105.107 26.5863 105.034 26.6771C104.964 26.7649 104.864 26.8308 104.736 26.8747ZM103.514 26.7869H104.24C104.426 26.7869 104.569 26.7532 104.667 26.6859C104.768 26.6185 104.818 26.5204 104.818 26.3916C104.818 26.2628 104.768 26.1662 104.667 26.1018C104.569 26.0374 104.426 26.0052 104.24 26.0052H103.514V26.7869ZM104.281 27.8233C104.489 27.8233 104.645 27.7911 104.749 27.7267C104.853 27.6622 104.905 27.5612 104.905 27.4236C104.905 27.286 104.858 27.185 104.763 27.1206C104.668 27.0533 104.518 27.0196 104.313 27.0196H103.514V27.8233H104.281Z" fill="#2D383F"/>
<path d="M108.9 26.0359H107.518V28.0692H107.192V25.7592H108.9V26.0359Z" fill="#2D383F"/>
<path d="M110.255 28.0912C110.022 28.0912 109.812 28.0414 109.626 27.9418C109.439 27.8394 109.292 27.6988 109.185 27.5203C109.078 27.3417 109.024 27.1396 109.024 26.9142C109.024 26.6888 109.078 26.4868 109.185 26.3082C109.292 26.1296 109.439 25.9905 109.626 25.891C109.812 25.7914 110.022 25.7417 110.255 25.7417C110.487 25.7417 110.697 25.7914 110.884 25.891C111.07 25.9905 111.216 26.1296 111.32 26.3082C111.427 26.4868 111.48 26.6888 111.48 26.9142C111.48 27.1396 111.427 27.3417 111.32 27.5203C111.216 27.6988 111.07 27.8394 110.884 27.9418C110.697 28.0414 110.487 28.0912 110.255 28.0912ZM110.255 27.8145C110.426 27.8145 110.579 27.7779 110.714 27.7047C110.851 27.6286 110.959 27.5217 111.035 27.3841C111.112 27.2465 111.15 27.0899 111.15 26.9142C111.15 26.7385 111.112 26.5819 111.035 26.4443C110.959 26.3067 110.851 26.2013 110.714 26.1281C110.579 26.052 110.426 26.0139 110.255 26.0139C110.083 26.0139 109.929 26.052 109.791 26.1281C109.656 26.2013 109.549 26.3067 109.47 26.4443C109.393 26.5819 109.355 26.7385 109.355 26.9142C109.355 27.0899 109.393 27.2465 109.47 27.3841C109.549 27.5217 109.656 27.6286 109.791 27.7047C109.929 27.7779 110.083 27.8145 110.255 27.8145Z" fill="#2D383F"/>
<path d="M113.421 25.7417C113.647 25.7417 113.852 25.7914 114.036 25.891C114.22 25.9876 114.363 26.1252 114.467 26.3038C114.572 26.4824 114.624 26.6859 114.624 26.9142C114.624 27.1455 114.572 27.3504 114.467 27.529C114.363 27.7076 114.22 27.8467 114.036 27.9462C113.855 28.0429 113.65 28.0912 113.421 28.0912C113.225 28.0912 113.048 28.0531 112.888 27.977C112.732 27.8979 112.604 27.7837 112.503 27.6344V28.9212H112.177V25.7592H112.489V26.216C112.587 26.0637 112.715 25.9466 112.875 25.8646C113.037 25.7826 113.219 25.7417 113.421 25.7417ZM113.398 27.8145C113.566 27.8145 113.719 27.7779 113.857 27.7047C113.995 27.6286 114.102 27.5217 114.178 27.3841C114.258 27.2465 114.298 27.0899 114.298 26.9142C114.298 26.7385 114.258 26.5834 114.178 26.4487C114.102 26.3111 113.995 26.2042 113.857 26.1281C113.719 26.052 113.566 26.0139 113.398 26.0139C113.227 26.0139 113.072 26.052 112.934 26.1281C112.8 26.2042 112.693 26.3111 112.613 26.4487C112.536 26.5834 112.498 26.7385 112.498 26.9142C112.498 27.0899 112.536 27.2465 112.613 27.3841C112.693 27.5217 112.8 27.6286 112.934 27.7047C113.072 27.7779 113.227 27.8145 113.398 27.8145Z" fill="#2D383F"/>
<path d="M116.338 26.5761C116.641 26.579 116.872 26.6434 117.031 26.7693C117.191 26.8952 117.27 27.0767 117.27 27.3138C117.27 27.5598 117.184 27.7486 117.013 27.8804C116.842 28.0121 116.597 28.0765 116.279 28.0736L115.324 28.0692V25.7592H115.65V26.5673L116.338 26.5761ZM117.674 25.7592H118V28.0692H117.674V25.7592ZM116.26 27.8364C116.484 27.8394 116.652 27.7969 116.765 27.7091C116.881 27.6183 116.94 27.4866 116.94 27.3138C116.94 27.144 116.883 27.0181 116.77 26.9362C116.657 26.8542 116.487 26.8117 116.26 26.8088L115.65 26.8V27.8277L116.26 27.8364Z" fill="#2D383F"/>
</g>
</g>
<defs>
<clipPath id="clip0_248_2661">
<rect width="118" height="34" fill="white"/>
</clipPath>
</defs>
</svg>
