<svg width="19" height="19" viewBox="0 0 19 19" fill="none" xmlns="http://www.w3.org/2000/svg">
<g id="mountain" clip-path="url(#clip0_259_723)">
<g id="Group">
<g id="Group_2">
<path id="Vector" d="M17.7957 18.3828L14.7248 11.2404L11.8243 4.4896C11.7458 4.30538 11.5329 4.21968 11.3487 4.29813C11.2626 4.33484 11.1939 4.40345 11.1572 4.4896L8.56858 10.4972L7.55342 12.8574L5.32732 7.71999C5.24882 7.53576 5.03586 7.45007 4.85169 7.52851C4.76553 7.56522 4.69692 7.63384 4.66021 7.71999L2.56825 12.5529L0.0303519 18.3792C-0.0497279 18.5627 0.0341135 18.7764 0.217613 18.8565C0.263748 18.8766 0.313555 18.8869 0.363905 18.8868H17.4621C17.6623 18.8866 17.8245 18.7241 17.8244 18.5239C17.8244 18.4754 17.8146 18.4274 17.7957 18.3828ZM11.4872 5.54465L13.8402 11.0156H13.0135L11.5198 9.366C11.3851 9.2178 11.1558 9.20688 11.0076 9.34157C10.9844 9.36269 10.964 9.38676 10.947 9.41313L10.3886 10.276H9.45322L11.4872 5.54465ZM4.99376 8.76415L6.85368 13.0641H5.83852C5.71525 13.0643 5.60055 13.1271 5.53397 13.2309L5.17142 13.8073L4.23602 12.4876C4.1684 12.3901 4.05737 12.3319 3.93872 12.3317H3.45652L4.99376 8.76415ZM0.93312 18.1616L3.14109 13.0568H3.75019L4.88137 14.6702C4.94899 14.7677 5.06002 14.8259 5.17867 14.8261C5.29935 14.8235 5.41079 14.7609 5.47596 14.6593L6.0343 13.7964H7.16548L9.0544 18.1471L0.93312 18.1616ZM9.8484 18.1616L7.9486 13.7747L9.14142 11.0011H10.5916C10.7149 11.0009 10.8296 10.9381 10.8962 10.8344L11.2986 10.2144L12.5821 11.632C12.6506 11.7079 12.7481 11.7514 12.8504 11.7516H14.1483L16.9074 18.1725L9.8484 18.1616Z" fill="#2D383F"/>
</g>
</g>
<g id="Group_3">
<g id="Group_4">
<path id="Vector_2" d="M5.78466 1.58214C5.44264 0.70108 4.45109 0.264153 3.57007 0.606226C2.91407 0.860877 2.48086 1.49118 2.47814 2.19486C2.47456 2.25767 2.47456 2.32058 2.47814 2.38339C1.62097 2.78148 1.24885 3.79909 1.64693 4.65626C1.92261 5.24982 2.51268 5.63417 3.167 5.64641L3.18513 5.66091H5.72303C6.84936 5.67795 7.77619 4.77867 7.79323 3.65234C7.81023 2.52601 6.91099 1.59918 5.78466 1.58214ZM5.74478 4.94667H3.20688C2.66422 5.00273 2.1789 4.60832 2.12284 4.06566C2.06678 3.523 2.46119 3.03767 3.00385 2.98161C3.20013 2.94205 3.32721 2.75089 3.28764 2.55456C3.28461 2.53956 3.28066 2.52474 3.27577 2.51029C3.24037 2.40886 3.22202 2.30227 3.22138 2.19486C3.2183 1.65021 3.65727 1.20621 4.20192 1.20309C4.68371 1.20032 5.09694 1.54611 5.17919 2.02083C5.2125 2.21145 5.38966 2.34229 5.58163 2.31813C5.63597 2.31455 5.69045 2.31455 5.74478 2.31813C6.47062 2.31813 7.05905 2.90656 7.05905 3.6324C7.05905 4.35824 6.47062 4.94667 5.74478 4.94667Z" fill="#2D383F"/>
</g>
</g>
<g id="Group_5">
<g id="Group_6">
<path id="Vector_3" d="M18.0091 2.00599C18.0127 1.94318 18.0127 1.88027 18.0091 1.81746C18.0054 0.872364 17.2363 0.10918 16.2912 0.112806C15.5927 0.115525 14.9669 0.542708 14.7087 1.19073C13.588 1.21421 12.6952 2.13819 12.7122 3.26044C12.7292 4.38677 13.656 5.28605 14.7824 5.26901H17.3203C18.2652 5.25133 19.0169 4.47102 18.9993 3.52606C18.987 2.87173 18.6027 2.28167 18.0091 2.00599ZM18.2822 3.75977C18.1862 4.21007 17.7915 4.53401 17.3311 4.54027H14.7932C14.0674 4.54027 13.479 3.95184 13.479 3.226C13.479 2.50016 14.0674 1.91173 14.7932 1.91173C14.8476 1.90814 14.902 1.90814 14.9564 1.91173C15.1398 1.93076 15.3083 1.80908 15.3479 1.62893C15.4388 1.09194 15.9478 0.730286 16.4848 0.821152C17.0218 0.912018 17.3835 1.421 17.2926 1.95804C17.2834 2.01256 17.2696 2.06622 17.2514 2.11843C17.1873 2.30814 17.2893 2.51384 17.479 2.57788C17.4935 2.58277 17.5083 2.58676 17.5233 2.58975C18.056 2.70323 18.3957 3.22708 18.2822 3.75977Z" fill="#2D383F"/>
</g>
</g>
</g>
<defs>
<clipPath id="clip0_259_723">
<rect width="19" height="19" fill="white"/>
</clipPath>
</defs>
</svg>
