<svg width="42" height="42" viewBox="0 0 42 42" fill="none" xmlns="http://www.w3.org/2000/svg"><g id="icon/pin_filled"><g id="Vector"><path d="M35.318 15.5541C35.318 8.0182 28.9075 1.90918 20.9998 1.90918C13.0921 1.90918 6.68164 8.0182 6.68164 15.5541V16.3759C6.68164 19.3911 7.67025 22.331 9.50928 24.7846L20.9715 40.0771C20.9854 40.0956 21.0142 40.0956 21.0281 40.0771L32.4904 24.7846C34.3294 22.331 35.318 19.3911 35.318 16.3759V15.5541Z" fill="#0266C1"/><path d="M18.4556 11.0046C20.0634 10.272 21.9362 10.272 23.544 11.0046C25.1518 11.7373 26.3195 13.1228 26.7165 14.769C27.1136 16.4152 26.6969 18.1429 25.5843 19.4631C24.4717 20.7832 22.7843 21.5521 20.9998 21.5521C19.2153 21.5521 17.528 20.7832 16.4154 19.4631C15.3028 18.1429 14.886 16.4152 15.2831 14.769C15.6802 13.1228 16.8479 11.7373 18.4556 11.0046Z" fill="white"/></g></g></svg>